<?xml version="1.0" encoding="UTF-8" standalone="no"?>
<!DOCTYPE svg PUBLIC "-//W3C//DTD SVG 1.1//EN"
 "http://www.w3.org/Graphics/SVG/1.1/DTD/svg11.dtd">
<!-- Generated by graphviz version 14.0.1 (20251006.0113)
 -->
<!-- Title: Bodzia_&#45;_Capetian_Dynasty Pages: 1 -->
<svg width="225pt" height="103pt"
 viewBox="0.00 0.00 225.00 103.00" xmlns="http://www.w3.org/2000/svg" xmlns:xlink="http://www.w3.org/1999/xlink">
<g id="graph0" class="graph" transform="scale(1 1) rotate(0) translate(4 98.75)">
<title>Bodzia_&#45;_Capetian_Dynasty</title>
<polygon fill="white" stroke="none" points="-4,4 -4,-98.75 221,-98.75 221,4 -4,4"/>
<text xml:space="preserve" text-anchor="middle" x="108.5" y="-75.55" font-family="Arial Bold" font-size="16.00">Bodzia &#45; Capetian Dynasty</text>
<!-- CAP001 -->
<g id="node1" class="node">
<title>CAP001</title>
<path fill="#fcbad3" stroke="black" d="M78.38,-68C78.38,-68 22.62,-68 22.62,-68 16.62,-68 10.62,-62 10.62,-56 10.62,-56 10.62,-12 10.62,-12 10.62,-6 16.62,0 22.62,0 22.62,0 78.38,0 78.38,0 84.38,0 90.38,-6 90.38,-12 90.38,-12 90.38,-56 90.38,-56 90.38,-62 84.38,-68 78.38,-68"/>
<text xml:space="preserve" text-anchor="middle" x="50.5" y="-54.5" font-family="Arial" font-size="10.00">Hugh Capet</text>
<text xml:space="preserve" text-anchor="middle" x="50.5" y="-42.5" font-family="Arial" font-size="10.00">King of France</text>
<text xml:space="preserve" text-anchor="middle" x="50.5" y="-30.5" font-family="Arial" font-size="10.00">(king)</text>
<text xml:space="preserve" text-anchor="middle" x="50.5" y="-6.5" font-family="Arial" font-size="10.00">941 &#45; 996</text>
</g>
<!-- CAP002 -->
<g id="node2" class="node">
<title>CAP002</title>
<path fill="#fcbad3" stroke="black" d="M194.38,-68C194.38,-68 138.62,-68 138.62,-68 132.62,-68 126.62,-62 126.62,-56 126.62,-56 126.62,-12 126.62,-12 126.62,-6 132.62,0 138.62,0 138.62,0 194.38,0 194.38,0 200.38,0 206.38,-6 206.38,-12 206.38,-12 206.38,-56 206.38,-56 206.38,-62 200.38,-68 194.38,-68"/>
<text xml:space="preserve" text-anchor="middle" x="166.5" y="-54.5" font-family="Arial" font-size="10.00">Robert II</text>
<text xml:space="preserve" text-anchor="middle" x="166.5" y="-42.5" font-family="Arial" font-size="10.00">King of France</text>
<text xml:space="preserve" text-anchor="middle" x="166.5" y="-30.5" font-family="Arial" font-size="10.00">(king)</text>
<text xml:space="preserve" text-anchor="middle" x="166.5" y="-6.5" font-family="Arial" font-size="10.00">972 &#45; 1031</text>
</g>
</g>
</svg>
