<?xml version="1.0" encoding="UTF-8" standalone="no"?>
<!DOCTYPE svg PUBLIC "-//W3C//DTD SVG 1.1//EN"
 "http://www.w3.org/Graphics/SVG/1.1/DTD/svg11.dtd">
<!-- Generated by graphviz version 14.0.1 (20251006.0113)
 -->
<!-- Title: Bodzia_&#45;_Normandy_Dynasty Pages: 1 -->
<svg width="671pt" height="171pt"
 viewBox="0.00 0.00 671.00 171.00" xmlns="http://www.w3.org/2000/svg" xmlns:xlink="http://www.w3.org/1999/xlink">
<g id="graph0" class="graph" transform="scale(1 1) rotate(0) translate(4 166.75)">
<title>Bodzia_&#45;_Normandy_Dynasty</title>
<polygon fill="white" stroke="none" points="-4,4 -4,-166.75 667,-166.75 667,4 -4,4"/>
<text xml:space="preserve" text-anchor="middle" x="331.5" y="-143.55" font-family="Arial Bold" font-size="16.00">Bodzia &#45; Normandy Dynasty</text>
<!-- NOR001 -->
<g id="node1" class="node">
<title>NOR001</title>
<path fill="#aa96da" stroke="black" d="M88.62,-129.18C88.62,-129.18 9.88,-74.82 9.88,-74.82 4.94,-71.41 4.94,-64.59 9.88,-61.18 9.88,-61.18 88.62,-6.82 88.62,-6.82 93.56,-3.41 103.44,-3.41 108.38,-6.82 108.38,-6.82 187.12,-61.18 187.12,-61.18 192.06,-64.59 192.06,-71.41 187.12,-74.82 187.12,-74.82 108.38,-129.18 108.38,-129.18 103.44,-132.59 93.56,-132.59 88.62,-129.18"/>
<text xml:space="preserve" text-anchor="middle" x="98.5" y="-88.5" font-family="Arial" font-size="10.00">Richard I</text>
<text xml:space="preserve" text-anchor="middle" x="98.5" y="-76.5" font-family="Arial" font-size="10.00">Duke of Normandy</text>
<text xml:space="preserve" text-anchor="middle" x="98.5" y="-64.5" font-family="Arial" font-size="10.00">(duke)</text>
<text xml:space="preserve" text-anchor="middle" x="98.5" y="-40.5" font-family="Arial" font-size="10.00">933 &#45; 996</text>
</g>
<!-- NOR002 -->
<g id="node2" class="node">
<title>NOR002</title>
<path fill="#aa96da" stroke="black" d="M321.62,-129.18C321.62,-129.18 242.88,-74.82 242.88,-74.82 237.94,-71.41 237.94,-64.59 242.88,-61.18 242.88,-61.18 321.62,-6.82 321.62,-6.82 326.56,-3.41 336.44,-3.41 341.38,-6.82 341.38,-6.82 420.12,-61.18 420.12,-61.18 425.06,-64.59 425.06,-71.41 420.12,-74.82 420.12,-74.82 341.38,-129.18 341.38,-129.18 336.44,-132.59 326.56,-132.59 321.62,-129.18"/>
<text xml:space="preserve" text-anchor="middle" x="331.5" y="-88.5" font-family="Arial" font-size="10.00">Richard II</text>
<text xml:space="preserve" text-anchor="middle" x="331.5" y="-76.5" font-family="Arial" font-size="10.00">Duke of Normandy</text>
<text xml:space="preserve" text-anchor="middle" x="331.5" y="-64.5" font-family="Arial" font-size="10.00">(duke)</text>
<text xml:space="preserve" text-anchor="middle" x="331.5" y="-40.5" font-family="Arial" font-size="10.00">963 &#45; 1026</text>
</g>
<!-- NOR003 -->
<g id="node3" class="node">
<title>NOR003</title>
<path fill="#aa96da" stroke="black" d="M554.62,-129.18C554.62,-129.18 475.88,-74.82 475.88,-74.82 470.94,-71.41 470.94,-64.59 475.88,-61.18 475.88,-61.18 554.62,-6.82 554.62,-6.82 559.56,-3.41 569.44,-3.41 574.38,-6.82 574.38,-6.82 653.12,-61.18 653.12,-61.18 658.06,-64.59 658.06,-71.41 653.12,-74.82 653.12,-74.82 574.38,-129.18 574.38,-129.18 569.44,-132.59 559.56,-132.59 554.62,-129.18"/>
<text xml:space="preserve" text-anchor="middle" x="564.5" y="-88.5" font-family="Arial" font-size="10.00">Richard III</text>
<text xml:space="preserve" text-anchor="middle" x="564.5" y="-76.5" font-family="Arial" font-size="10.00">Duke of Normandy</text>
<text xml:space="preserve" text-anchor="middle" x="564.5" y="-64.5" font-family="Arial" font-size="10.00">(duke)</text>
<text xml:space="preserve" text-anchor="middle" x="564.5" y="-40.5" font-family="Arial" font-size="10.00">997 &#45; 1027</text>
</g>
</g>
</svg>
