<?xml version="1.0" encoding="UTF-8" standalone="no"?>
<!DOCTYPE svg PUBLIC "-//W3C//DTD SVG 1.1//EN"
 "http://www.w3.org/Graphics/SVG/1.1/DTD/svg11.dtd">
<!-- Generated by graphviz version 14.0.1 (20251006.0113)
 -->
<!-- Title: Bodzia_Early_Medieval_Royal_Houses_&#45;_Complete_Tree Pages: 1 -->
<svg width="4259pt" height="458pt"
 viewBox="0.00 0.00 4259.00 458.00" xmlns="http://www.w3.org/2000/svg" xmlns:xlink="http://www.w3.org/1999/xlink">
<g id="graph0" class="graph" transform="scale(1 1) rotate(0) translate(4 453.95)">
<title>Bodzia_Early_Medieval_Royal_Houses_&#45;_Complete_Tree</title>
<polygon fill="white" stroke="none" points="-4,4 -4,-453.95 4254.73,-453.95 4254.73,4 -4,4"/>
<text xml:space="preserve" text-anchor="middle" x="2125.37" y="-430.75" font-family="Arial Bold" font-size="16.00">Bodzia Early Medieval Royal Houses &#45; Complete Tree</text>
<!-- RUR001 -->
<g id="node1" class="node">
<title>RUR001</title>
<ellipse fill="#ff6b6b" stroke="black" cx="75.48" cy="-355.2" rx="75.48" ry="48.08"/>
<text xml:space="preserve" text-anchor="middle" x="75.48" y="-375.7" font-family="Arial" font-size="10.00">Sviatopolk I</text>
<text xml:space="preserve" text-anchor="middle" x="75.48" y="-363.7" font-family="Arial" font-size="10.00">Grand Prince of Kiev</text>
<text xml:space="preserve" text-anchor="middle" x="75.48" y="-351.7" font-family="Arial" font-size="10.00">(prince)</text>
<text xml:space="preserve" text-anchor="middle" x="75.48" y="-327.7" font-family="Arial" font-size="10.00">980 &#45; 1019</text>
</g>
<!-- RUR002 -->
<g id="node2" class="node">
<title>RUR002</title>
<ellipse fill="#ff6b6b" stroke="black" cx="262.48" cy="-355.2" rx="75.48" ry="48.08"/>
<text xml:space="preserve" text-anchor="middle" x="262.48" y="-375.7" font-family="Arial" font-size="10.00">Vladimir I the Great</text>
<text xml:space="preserve" text-anchor="middle" x="262.48" y="-363.7" font-family="Arial" font-size="10.00">Grand Prince of Kiev</text>
<text xml:space="preserve" text-anchor="middle" x="262.48" y="-351.7" font-family="Arial" font-size="10.00">(prince)</text>
<text xml:space="preserve" text-anchor="middle" x="262.48" y="-327.7" font-family="Arial" font-size="10.00">958 &#45; 1015</text>
</g>
<!-- RUR003 -->
<g id="node3" class="node">
<title>RUR003</title>
<ellipse fill="#ff6b6b" stroke="black" cx="449.48" cy="-355.2" rx="75.48" ry="48.08"/>
<text xml:space="preserve" text-anchor="middle" x="449.48" y="-375.7" font-family="Arial" font-size="10.00">Yaroslav I the Wise</text>
<text xml:space="preserve" text-anchor="middle" x="449.48" y="-363.7" font-family="Arial" font-size="10.00">Grand Prince of Kiev</text>
<text xml:space="preserve" text-anchor="middle" x="449.48" y="-351.7" font-family="Arial" font-size="10.00">(prince)</text>
<text xml:space="preserve" text-anchor="middle" x="449.48" y="-327.7" font-family="Arial" font-size="10.00">978 &#45; 1054</text>
</g>
<!-- RUR004 -->
<g id="node4" class="node">
<title>RUR004</title>
<ellipse fill="#ff6b6b" stroke="black" cx="636.48" cy="-355.2" rx="75.48" ry="48.08"/>
<text xml:space="preserve" text-anchor="middle" x="636.48" y="-375.7" font-family="Arial" font-size="10.00">Iziaslav I</text>
<text xml:space="preserve" text-anchor="middle" x="636.48" y="-363.7" font-family="Arial" font-size="10.00">Grand Prince of Kiev</text>
<text xml:space="preserve" text-anchor="middle" x="636.48" y="-351.7" font-family="Arial" font-size="10.00">(prince)</text>
<text xml:space="preserve" text-anchor="middle" x="636.48" y="-327.7" font-family="Arial" font-size="10.00">1024 &#45; 1078</text>
</g>
<!-- RUR005 -->
<g id="node5" class="node">
<title>RUR005</title>
<ellipse fill="#ff6b6b" stroke="black" cx="823.48" cy="-355.2" rx="75.48" ry="48.08"/>
<text xml:space="preserve" text-anchor="middle" x="823.48" y="-375.7" font-family="Arial" font-size="10.00">Sviatoslav I</text>
<text xml:space="preserve" text-anchor="middle" x="823.48" y="-363.7" font-family="Arial" font-size="10.00">Grand Prince of Kiev</text>
<text xml:space="preserve" text-anchor="middle" x="823.48" y="-351.7" font-family="Arial" font-size="10.00">(prince)</text>
<text xml:space="preserve" text-anchor="middle" x="823.48" y="-327.7" font-family="Arial" font-size="10.00">942 &#45; 972</text>
</g>
<!-- PIA001 -->
<g id="node6" class="node">
<title>PIA001</title>
<path fill="#4ecdc4" stroke="black" d="M1029.86,-389.2C1029.86,-389.2 947.11,-389.2 947.11,-389.2 941.11,-389.2 935.11,-383.2 935.11,-377.2 935.11,-377.2 935.11,-333.2 935.11,-333.2 935.11,-327.2 941.11,-321.2 947.11,-321.2 947.11,-321.2 1029.86,-321.2 1029.86,-321.2 1035.86,-321.2 1041.86,-327.2 1041.86,-333.2 1041.86,-333.2 1041.86,-377.2 1041.86,-377.2 1041.86,-383.2 1035.86,-389.2 1029.86,-389.2"/>
<text xml:space="preserve" text-anchor="middle" x="988.48" y="-375.7" font-family="Arial" font-size="10.00">Boleslaw I the Brave</text>
<text xml:space="preserve" text-anchor="middle" x="988.48" y="-363.7" font-family="Arial" font-size="10.00">King of Poland</text>
<text xml:space="preserve" text-anchor="middle" x="988.48" y="-351.7" font-family="Arial" font-size="10.00">(king)</text>
<text xml:space="preserve" text-anchor="middle" x="988.48" y="-327.7" font-family="Arial" font-size="10.00">967 &#45; 1025</text>
</g>
<!-- PIA002 -->
<g id="node7" class="node">
<title>PIA002</title>
<path fill="#4ecdc4" stroke="black" d="M1165.48,-389.2C1165.48,-389.2 1089.48,-389.2 1089.48,-389.2 1083.48,-389.2 1077.48,-383.2 1077.48,-377.2 1077.48,-377.2 1077.48,-333.2 1077.48,-333.2 1077.48,-327.2 1083.48,-321.2 1089.48,-321.2 1089.48,-321.2 1165.48,-321.2 1165.48,-321.2 1171.48,-321.2 1177.48,-327.2 1177.48,-333.2 1177.48,-333.2 1177.48,-377.2 1177.48,-377.2 1177.48,-383.2 1171.48,-389.2 1165.48,-389.2"/>
<text xml:space="preserve" text-anchor="middle" x="1127.48" y="-375.7" font-family="Arial" font-size="10.00">Mieszko II Lambert</text>
<text xml:space="preserve" text-anchor="middle" x="1127.48" y="-363.7" font-family="Arial" font-size="10.00">King of Poland</text>
<text xml:space="preserve" text-anchor="middle" x="1127.48" y="-351.7" font-family="Arial" font-size="10.00">(king)</text>
<text xml:space="preserve" text-anchor="middle" x="1127.48" y="-327.7" font-family="Arial" font-size="10.00">990 &#45; 1034</text>
</g>
<!-- m_FAM_PIA003 -->
<!-- PIA002&#45;&gt;m_FAM_PIA003 -->
<g id="edge1" class="edge">
<title>PIA002&#45;&gt;m_FAM_PIA003</title>
<path fill="none" stroke="#666666" d="M1177.84,-344C1188.85,-344 1197.28,-344 1197.28,-344 1197.28,-344 1197.28,-223.93 1197.28,-223.93"/>
<polygon fill="#666666" stroke="#666666" points="1199.73,-223.93 1197.28,-216.93 1194.83,-223.93 1199.73,-223.93"/>
</g>
<!-- PIA003 -->
<g id="node8" class="node">
<title>PIA003</title>
<path fill="#4ecdc4" stroke="black" d="M1315.23,-389.2C1315.23,-389.2 1225.73,-389.2 1225.73,-389.2 1219.73,-389.2 1213.73,-383.2 1213.73,-377.2 1213.73,-377.2 1213.73,-333.2 1213.73,-333.2 1213.73,-327.2 1219.73,-321.2 1225.73,-321.2 1225.73,-321.2 1315.23,-321.2 1315.23,-321.2 1321.23,-321.2 1327.23,-327.2 1327.23,-333.2 1327.23,-333.2 1327.23,-377.2 1327.23,-377.2 1327.23,-383.2 1321.23,-389.2 1315.23,-389.2"/>
<text xml:space="preserve" text-anchor="middle" x="1270.48" y="-375.7" font-family="Arial" font-size="10.00">Richeza of Lotharingia</text>
<text xml:space="preserve" text-anchor="middle" x="1270.48" y="-363.7" font-family="Arial" font-size="10.00">Queen of Poland</text>
<text xml:space="preserve" text-anchor="middle" x="1270.48" y="-351.7" font-family="Arial" font-size="10.00">(queen)</text>
<text xml:space="preserve" text-anchor="middle" x="1270.48" y="-327.7" font-family="Arial" font-size="10.00">995 &#45; 1063</text>
</g>
<!-- PIA003&#45;&gt;m_FAM_PIA003 -->
<g id="edge2" class="edge">
<title>PIA003&#45;&gt;m_FAM_PIA003</title>
<path fill="none" stroke="#666666" d="M1213.33,-367C1205.28,-367 1199.68,-367 1199.68,-367 1199.68,-367 1199.68,-223.95 1199.68,-223.95"/>
<polygon fill="#666666" stroke="#666666" points="1202.13,-223.95 1199.68,-216.95 1197.23,-223.95 1202.13,-223.95"/>
</g>
<!-- PIA004 -->
<g id="node9" class="node">
<title>PIA004</title>
<path fill="#4ecdc4" stroke="black" d="M1188.21,-129.8C1188.21,-129.8 1096.01,-74.2 1096.01,-74.2 1090.87,-71.1 1090.87,-64.9 1096.01,-61.8 1096.01,-61.8 1188.21,-6.2 1188.21,-6.2 1193.35,-3.1 1203.62,-3.1 1208.76,-6.2 1208.76,-6.2 1300.96,-61.8 1300.96,-61.8 1306.1,-64.9 1306.1,-71.1 1300.96,-74.2 1300.96,-74.2 1208.76,-129.8 1208.76,-129.8 1203.62,-132.9 1193.35,-132.9 1188.21,-129.8"/>
<text xml:space="preserve" text-anchor="middle" x="1198.48" y="-88.5" font-family="Arial" font-size="10.00">Casimir I the Restorer</text>
<text xml:space="preserve" text-anchor="middle" x="1198.48" y="-76.5" font-family="Arial" font-size="10.00">Duke of Poland</text>
<text xml:space="preserve" text-anchor="middle" x="1198.48" y="-64.5" font-family="Arial" font-size="10.00">(duke)</text>
<text xml:space="preserve" text-anchor="middle" x="1198.48" y="-40.5" font-family="Arial" font-size="10.00">1016 &#45; 1058</text>
</g>
<!-- PIA005 -->
<g id="node10" class="node">
<title>PIA005</title>
<path fill="#4ecdc4" stroke="black" d="M1437.18,-415.62C1437.18,-415.62 1372.29,-362.78 1372.29,-362.78 1367.64,-358.99 1367.64,-351.41 1372.29,-347.62 1372.29,-347.62 1437.18,-294.78 1437.18,-294.78 1441.83,-290.99 1451.14,-290.99 1455.79,-294.78 1455.79,-294.78 1520.68,-347.62 1520.68,-347.62 1525.33,-351.41 1525.33,-358.99 1520.68,-362.78 1520.68,-362.78 1455.79,-415.62 1455.79,-415.62 1451.14,-419.41 1441.83,-419.41 1437.18,-415.62"/>
<text xml:space="preserve" text-anchor="middle" x="1446.48" y="-375.7" font-family="Arial" font-size="10.00">Mieszko I</text>
<text xml:space="preserve" text-anchor="middle" x="1446.48" y="-363.7" font-family="Arial" font-size="10.00">Duke of Poland</text>
<text xml:space="preserve" text-anchor="middle" x="1446.48" y="-351.7" font-family="Arial" font-size="10.00">(duke)</text>
<text xml:space="preserve" text-anchor="middle" x="1446.48" y="-327.7" font-family="Arial" font-size="10.00">930 &#45; 992</text>
</g>
<!-- PRE001 -->
<g id="node11" class="node">
<title>PRE001</title>
<path fill="#95e1d3" stroke="black" d="M1647.84,-416.05C1647.84,-416.05 1575.37,-362.35 1575.37,-362.35 1570.55,-358.77 1570.55,-351.63 1575.37,-348.05 1575.37,-348.05 1647.84,-294.35 1647.84,-294.35 1652.66,-290.77 1662.3,-290.77 1667.12,-294.35 1667.12,-294.35 1739.59,-348.05 1739.59,-348.05 1744.41,-351.63 1744.41,-358.77 1739.59,-362.35 1739.59,-362.35 1667.12,-416.05 1667.12,-416.05 1662.3,-419.63 1652.66,-419.63 1647.84,-416.05"/>
<text xml:space="preserve" text-anchor="middle" x="1657.48" y="-375.7" font-family="Arial" font-size="10.00">Bretislaus I</text>
<text xml:space="preserve" text-anchor="middle" x="1657.48" y="-363.7" font-family="Arial" font-size="10.00">Duke of Bohemia</text>
<text xml:space="preserve" text-anchor="middle" x="1657.48" y="-351.7" font-family="Arial" font-size="10.00">(duke)</text>
<text xml:space="preserve" text-anchor="middle" x="1657.48" y="-327.7" font-family="Arial" font-size="10.00">1002 &#45; 1055</text>
</g>
<!-- PRE002 -->
<g id="node12" class="node">
<title>PRE002</title>
<path fill="#95e1d3" stroke="black" d="M1861.48,-389.2C1861.48,-389.2 1797.48,-389.2 1797.48,-389.2 1791.48,-389.2 1785.48,-383.2 1785.48,-377.2 1785.48,-377.2 1785.48,-333.2 1785.48,-333.2 1785.48,-327.2 1791.48,-321.2 1797.48,-321.2 1797.48,-321.2 1861.48,-321.2 1861.48,-321.2 1867.48,-321.2 1873.48,-327.2 1873.48,-333.2 1873.48,-333.2 1873.48,-377.2 1873.48,-377.2 1873.48,-383.2 1867.48,-389.2 1861.48,-389.2"/>
<text xml:space="preserve" text-anchor="middle" x="1829.48" y="-375.7" font-family="Arial" font-size="10.00">Vratislaus II</text>
<text xml:space="preserve" text-anchor="middle" x="1829.48" y="-363.7" font-family="Arial" font-size="10.00">King of Bohemia</text>
<text xml:space="preserve" text-anchor="middle" x="1829.48" y="-351.7" font-family="Arial" font-size="10.00">(king)</text>
<text xml:space="preserve" text-anchor="middle" x="1829.48" y="-327.7" font-family="Arial" font-size="10.00">1032 &#45; 1092</text>
</g>
<!-- PRE003 -->
<g id="node13" class="node">
<title>PRE003</title>
<path fill="#95e1d3" stroke="black" d="M1991.84,-416.05C1991.84,-416.05 1919.37,-362.35 1919.37,-362.35 1914.55,-358.77 1914.55,-351.63 1919.37,-348.05 1919.37,-348.05 1991.84,-294.35 1991.84,-294.35 1996.66,-290.77 2006.3,-290.77 2011.12,-294.35 2011.12,-294.35 2083.59,-348.05 2083.59,-348.05 2088.41,-351.63 2088.41,-358.77 2083.59,-362.35 2083.59,-362.35 2011.12,-416.05 2011.12,-416.05 2006.3,-419.63 1996.66,-419.63 1991.84,-416.05"/>
<text xml:space="preserve" text-anchor="middle" x="2001.48" y="-375.7" font-family="Arial" font-size="10.00">Boleslaus I</text>
<text xml:space="preserve" text-anchor="middle" x="2001.48" y="-363.7" font-family="Arial" font-size="10.00">Duke of Bohemia</text>
<text xml:space="preserve" text-anchor="middle" x="2001.48" y="-351.7" font-family="Arial" font-size="10.00">(duke)</text>
<text xml:space="preserve" text-anchor="middle" x="2001.48" y="-327.7" font-family="Arial" font-size="10.00">915 &#45; 972</text>
</g>
<!-- GOR001 -->
<g id="node14" class="node">
<title>GOR001</title>
<path fill="#f38181" stroke="black" d="M2207.23,-389.2C2207.23,-389.2 2141.73,-389.2 2141.73,-389.2 2135.73,-389.2 2129.73,-383.2 2129.73,-377.2 2129.73,-377.2 2129.73,-333.2 2129.73,-333.2 2129.73,-327.2 2135.73,-321.2 2141.73,-321.2 2141.73,-321.2 2207.23,-321.2 2207.23,-321.2 2213.23,-321.2 2219.23,-327.2 2219.23,-333.2 2219.23,-333.2 2219.23,-377.2 2219.23,-377.2 2219.23,-383.2 2213.23,-389.2 2207.23,-389.2"/>
<text xml:space="preserve" text-anchor="middle" x="2174.48" y="-375.7" font-family="Arial" font-size="10.00">Gorm the Old</text>
<text xml:space="preserve" text-anchor="middle" x="2174.48" y="-363.7" font-family="Arial" font-size="10.00">King of Denmark</text>
<text xml:space="preserve" text-anchor="middle" x="2174.48" y="-351.7" font-family="Arial" font-size="10.00">(king)</text>
<text xml:space="preserve" text-anchor="middle" x="2174.48" y="-327.7" font-family="Arial" font-size="10.00">900 &#45; 958</text>
</g>
<!-- GOR002 -->
<g id="node15" class="node">
<title>GOR002</title>
<path fill="#f38181" stroke="black" d="M2333.23,-389.2C2333.23,-389.2 2267.73,-389.2 2267.73,-389.2 2261.73,-389.2 2255.73,-383.2 2255.73,-377.2 2255.73,-377.2 2255.73,-333.2 2255.73,-333.2 2255.73,-327.2 2261.73,-321.2 2267.73,-321.2 2267.73,-321.2 2333.23,-321.2 2333.23,-321.2 2339.23,-321.2 2345.23,-327.2 2345.23,-333.2 2345.23,-333.2 2345.23,-377.2 2345.23,-377.2 2345.23,-383.2 2339.23,-389.2 2333.23,-389.2"/>
<text xml:space="preserve" text-anchor="middle" x="2300.48" y="-375.7" font-family="Arial" font-size="10.00">Harald Bluetooth</text>
<text xml:space="preserve" text-anchor="middle" x="2300.48" y="-363.7" font-family="Arial" font-size="10.00">King of Denmark</text>
<text xml:space="preserve" text-anchor="middle" x="2300.48" y="-351.7" font-family="Arial" font-size="10.00">(king)</text>
<text xml:space="preserve" text-anchor="middle" x="2300.48" y="-327.7" font-family="Arial" font-size="10.00">910 &#45; 986</text>
</g>
<!-- GOR003 -->
<g id="node16" class="node">
<title>GOR003</title>
<path fill="#f38181" stroke="black" d="M2461.73,-389.2C2461.73,-389.2 2393.23,-389.2 2393.23,-389.2 2387.23,-389.2 2381.23,-383.2 2381.23,-377.2 2381.23,-377.2 2381.23,-333.2 2381.23,-333.2 2381.23,-327.2 2387.23,-321.2 2393.23,-321.2 2393.23,-321.2 2461.73,-321.2 2461.73,-321.2 2467.73,-321.2 2473.73,-327.2 2473.73,-333.2 2473.73,-333.2 2473.73,-377.2 2473.73,-377.2 2473.73,-383.2 2467.73,-389.2 2461.73,-389.2"/>
<text xml:space="preserve" text-anchor="middle" x="2427.48" y="-375.7" font-family="Arial" font-size="10.00">Sweyn Forkbeard</text>
<text xml:space="preserve" text-anchor="middle" x="2427.48" y="-363.7" font-family="Arial" font-size="10.00">King of Denmark</text>
<text xml:space="preserve" text-anchor="middle" x="2427.48" y="-351.7" font-family="Arial" font-size="10.00">(king)</text>
<text xml:space="preserve" text-anchor="middle" x="2427.48" y="-327.7" font-family="Arial" font-size="10.00">960 &#45; 1014</text>
</g>
<!-- NOR001 -->
<g id="node17" class="node">
<title>NOR001</title>
<path fill="#aa96da" stroke="black" d="M2598.61,-416.38C2598.61,-416.38 2519.86,-362.02 2519.86,-362.02 2514.92,-358.61 2514.92,-351.79 2519.86,-348.38 2519.86,-348.38 2598.61,-294.02 2598.61,-294.02 2603.55,-290.61 2613.42,-290.61 2618.36,-294.02 2618.36,-294.02 2697.11,-348.38 2697.11,-348.38 2702.05,-351.79 2702.05,-358.61 2697.11,-362.02 2697.11,-362.02 2618.36,-416.38 2618.36,-416.38 2613.42,-419.79 2603.55,-419.79 2598.61,-416.38"/>
<text xml:space="preserve" text-anchor="middle" x="2608.48" y="-375.7" font-family="Arial" font-size="10.00">Richard I</text>
<text xml:space="preserve" text-anchor="middle" x="2608.48" y="-363.7" font-family="Arial" font-size="10.00">Duke of Normandy</text>
<text xml:space="preserve" text-anchor="middle" x="2608.48" y="-351.7" font-family="Arial" font-size="10.00">(duke)</text>
<text xml:space="preserve" text-anchor="middle" x="2608.48" y="-327.7" font-family="Arial" font-size="10.00">933 &#45; 996</text>
</g>
<!-- NOR002 -->
<g id="node18" class="node">
<title>NOR002</title>
<path fill="#aa96da" stroke="black" d="M2831.61,-416.38C2831.61,-416.38 2752.86,-362.02 2752.86,-362.02 2747.92,-358.61 2747.92,-351.79 2752.86,-348.38 2752.86,-348.38 2831.61,-294.02 2831.61,-294.02 2836.55,-290.61 2846.42,-290.61 2851.36,-294.02 2851.36,-294.02 2930.11,-348.38 2930.11,-348.38 2935.05,-351.79 2935.05,-358.61 2930.11,-362.02 2930.11,-362.02 2851.36,-416.38 2851.36,-416.38 2846.42,-419.79 2836.55,-419.79 2831.61,-416.38"/>
<text xml:space="preserve" text-anchor="middle" x="2841.48" y="-375.7" font-family="Arial" font-size="10.00">Richard II</text>
<text xml:space="preserve" text-anchor="middle" x="2841.48" y="-363.7" font-family="Arial" font-size="10.00">Duke of Normandy</text>
<text xml:space="preserve" text-anchor="middle" x="2841.48" y="-351.7" font-family="Arial" font-size="10.00">(duke)</text>
<text xml:space="preserve" text-anchor="middle" x="2841.48" y="-327.7" font-family="Arial" font-size="10.00">963 &#45; 1026</text>
</g>
<!-- NOR003 -->
<g id="node19" class="node">
<title>NOR003</title>
<path fill="#aa96da" stroke="black" d="M3064.61,-416.38C3064.61,-416.38 2985.86,-362.02 2985.86,-362.02 2980.92,-358.61 2980.92,-351.79 2985.86,-348.38 2985.86,-348.38 3064.61,-294.02 3064.61,-294.02 3069.55,-290.61 3079.42,-290.61 3084.36,-294.02 3084.36,-294.02 3163.11,-348.38 3163.11,-348.38 3168.05,-351.79 3168.05,-358.61 3163.11,-362.02 3163.11,-362.02 3084.36,-416.38 3084.36,-416.38 3079.42,-419.79 3069.55,-419.79 3064.61,-416.38"/>
<text xml:space="preserve" text-anchor="middle" x="3074.48" y="-375.7" font-family="Arial" font-size="10.00">Richard III</text>
<text xml:space="preserve" text-anchor="middle" x="3074.48" y="-363.7" font-family="Arial" font-size="10.00">Duke of Normandy</text>
<text xml:space="preserve" text-anchor="middle" x="3074.48" y="-351.7" font-family="Arial" font-size="10.00">(duke)</text>
<text xml:space="preserve" text-anchor="middle" x="3074.48" y="-327.7" font-family="Arial" font-size="10.00">997 &#45; 1027</text>
</g>
<!-- CAP001 -->
<g id="node20" class="node">
<title>CAP001</title>
<path fill="#fcbad3" stroke="black" d="M3276.36,-389.2C3276.36,-389.2 3220.61,-389.2 3220.61,-389.2 3214.61,-389.2 3208.61,-383.2 3208.61,-377.2 3208.61,-377.2 3208.61,-333.2 3208.61,-333.2 3208.61,-327.2 3214.61,-321.2 3220.61,-321.2 3220.61,-321.2 3276.36,-321.2 3276.36,-321.2 3282.36,-321.2 3288.36,-327.2 3288.36,-333.2 3288.36,-333.2 3288.36,-377.2 3288.36,-377.2 3288.36,-383.2 3282.36,-389.2 3276.36,-389.2"/>
<text xml:space="preserve" text-anchor="middle" x="3248.48" y="-375.7" font-family="Arial" font-size="10.00">Hugh Capet</text>
<text xml:space="preserve" text-anchor="middle" x="3248.48" y="-363.7" font-family="Arial" font-size="10.00">King of France</text>
<text xml:space="preserve" text-anchor="middle" x="3248.48" y="-351.7" font-family="Arial" font-size="10.00">(king)</text>
<text xml:space="preserve" text-anchor="middle" x="3248.48" y="-327.7" font-family="Arial" font-size="10.00">941 &#45; 996</text>
</g>
<!-- CAP002 -->
<g id="node21" class="node">
<title>CAP002</title>
<path fill="#fcbad3" stroke="black" d="M3392.36,-389.2C3392.36,-389.2 3336.61,-389.2 3336.61,-389.2 3330.61,-389.2 3324.61,-383.2 3324.61,-377.2 3324.61,-377.2 3324.61,-333.2 3324.61,-333.2 3324.61,-327.2 3330.61,-321.2 3336.61,-321.2 3336.61,-321.2 3392.36,-321.2 3392.36,-321.2 3398.36,-321.2 3404.36,-327.2 3404.36,-333.2 3404.36,-333.2 3404.36,-377.2 3404.36,-377.2 3404.36,-383.2 3398.36,-389.2 3392.36,-389.2"/>
<text xml:space="preserve" text-anchor="middle" x="3364.48" y="-375.7" font-family="Arial" font-size="10.00">Robert II</text>
<text xml:space="preserve" text-anchor="middle" x="3364.48" y="-363.7" font-family="Arial" font-size="10.00">King of France</text>
<text xml:space="preserve" text-anchor="middle" x="3364.48" y="-351.7" font-family="Arial" font-size="10.00">(king)</text>
<text xml:space="preserve" text-anchor="middle" x="3364.48" y="-327.7" font-family="Arial" font-size="10.00">972 &#45; 1031</text>
</g>
<!-- OTT001 -->
<g id="node22" class="node">
<title>OTT001</title>
<path fill="#a8d8ea" stroke="black" d="M3538.73,-389.2C3538.73,-389.2 3452.23,-389.2 3452.23,-389.2 3446.23,-389.2 3440.23,-383.2 3440.23,-377.2 3440.23,-377.2 3440.23,-333.2 3440.23,-333.2 3440.23,-327.2 3446.23,-321.2 3452.23,-321.2 3452.23,-321.2 3538.73,-321.2 3538.73,-321.2 3544.73,-321.2 3550.73,-327.2 3550.73,-333.2 3550.73,-333.2 3550.73,-377.2 3550.73,-377.2 3550.73,-383.2 3544.73,-389.2 3538.73,-389.2"/>
<text xml:space="preserve" text-anchor="middle" x="3495.48" y="-375.7" font-family="Arial" font-size="10.00">Otto I</text>
<text xml:space="preserve" text-anchor="middle" x="3495.48" y="-363.7" font-family="Arial" font-size="10.00">Holy Roman Emperor</text>
<text xml:space="preserve" text-anchor="middle" x="3495.48" y="-351.7" font-family="Arial" font-size="10.00">(emperor)</text>
<text xml:space="preserve" text-anchor="middle" x="3495.48" y="-327.7" font-family="Arial" font-size="10.00">912 &#45; 973</text>
</g>
<!-- OTT002 -->
<g id="node23" class="node">
<title>OTT002</title>
<path fill="#a8d8ea" stroke="black" d="M3685.73,-389.2C3685.73,-389.2 3599.23,-389.2 3599.23,-389.2 3593.23,-389.2 3587.23,-383.2 3587.23,-377.2 3587.23,-377.2 3587.23,-333.2 3587.23,-333.2 3587.23,-327.2 3593.23,-321.2 3599.23,-321.2 3599.23,-321.2 3685.73,-321.2 3685.73,-321.2 3691.73,-321.2 3697.73,-327.2 3697.73,-333.2 3697.73,-333.2 3697.73,-377.2 3697.73,-377.2 3697.73,-383.2 3691.73,-389.2 3685.73,-389.2"/>
<text xml:space="preserve" text-anchor="middle" x="3642.48" y="-375.7" font-family="Arial" font-size="10.00">Otto II</text>
<text xml:space="preserve" text-anchor="middle" x="3642.48" y="-363.7" font-family="Arial" font-size="10.00">Holy Roman Emperor</text>
<text xml:space="preserve" text-anchor="middle" x="3642.48" y="-351.7" font-family="Arial" font-size="10.00">(emperor)</text>
<text xml:space="preserve" text-anchor="middle" x="3642.48" y="-327.7" font-family="Arial" font-size="10.00">955 &#45; 983</text>
</g>
<!-- OTT003 -->
<g id="node24" class="node">
<title>OTT003</title>
<path fill="#a8d8ea" stroke="black" d="M3832.73,-389.2C3832.73,-389.2 3746.23,-389.2 3746.23,-389.2 3740.23,-389.2 3734.23,-383.2 3734.23,-377.2 3734.23,-377.2 3734.23,-333.2 3734.23,-333.2 3734.23,-327.2 3740.23,-321.2 3746.23,-321.2 3746.23,-321.2 3832.73,-321.2 3832.73,-321.2 3838.73,-321.2 3844.73,-327.2 3844.73,-333.2 3844.73,-333.2 3844.73,-377.2 3844.73,-377.2 3844.73,-383.2 3838.73,-389.2 3832.73,-389.2"/>
<text xml:space="preserve" text-anchor="middle" x="3789.48" y="-375.7" font-family="Arial" font-size="10.00">Otto III</text>
<text xml:space="preserve" text-anchor="middle" x="3789.48" y="-363.7" font-family="Arial" font-size="10.00">Holy Roman Emperor</text>
<text xml:space="preserve" text-anchor="middle" x="3789.48" y="-351.7" font-family="Arial" font-size="10.00">(emperor)</text>
<text xml:space="preserve" text-anchor="middle" x="3789.48" y="-327.7" font-family="Arial" font-size="10.00">980 &#45; 1002</text>
</g>
<!-- ARP001 -->
<g id="node25" class="node">
<title>ARP001</title>
<path fill="#ffd93d" stroke="black" d="M3993.96,-417.43C3993.96,-417.43 3891.01,-360.97 3891.01,-360.97 3885.74,-358.08 3885.74,-352.32 3891.01,-349.43 3891.01,-349.43 3993.96,-292.97 3993.96,-292.97 3999.22,-290.08 4009.74,-290.08 4015.01,-292.97 4015.01,-292.97 4117.96,-349.43 4117.96,-349.43 4123.22,-352.32 4123.22,-358.08 4117.96,-360.97 4117.96,-360.97 4015.01,-417.43 4015.01,-417.43 4009.74,-420.32 3999.22,-420.32 3993.96,-417.43"/>
<text xml:space="preserve" text-anchor="middle" x="4004.48" y="-375.7" font-family="Arial" font-size="10.00">Arpad</text>
<text xml:space="preserve" text-anchor="middle" x="4004.48" y="-363.7" font-family="Arial" font-size="10.00">Grand Prince of Hungary</text>
<text xml:space="preserve" text-anchor="middle" x="4004.48" y="-351.7" font-family="Arial" font-size="10.00">(duke)</text>
<text xml:space="preserve" text-anchor="middle" x="4004.48" y="-327.7" font-family="Arial" font-size="10.00">845 &#45; 907</text>
</g>
<!-- ARP002 -->
<g id="node26" class="node">
<title>ARP002</title>
<path fill="#ffd93d" stroke="black" d="M4238.73,-389.2C4238.73,-389.2 4176.23,-389.2 4176.23,-389.2 4170.23,-389.2 4164.23,-383.2 4164.23,-377.2 4164.23,-377.2 4164.23,-333.2 4164.23,-333.2 4164.23,-327.2 4170.23,-321.2 4176.23,-321.2 4176.23,-321.2 4238.73,-321.2 4238.73,-321.2 4244.73,-321.2 4250.73,-327.2 4250.73,-333.2 4250.73,-333.2 4250.73,-377.2 4250.73,-377.2 4250.73,-383.2 4244.73,-389.2 4238.73,-389.2"/>
<text xml:space="preserve" text-anchor="middle" x="4207.48" y="-375.7" font-family="Arial" font-size="10.00">Stephen I</text>
<text xml:space="preserve" text-anchor="middle" x="4207.48" y="-363.7" font-family="Arial" font-size="10.00">King of Hungary</text>
<text xml:space="preserve" text-anchor="middle" x="4207.48" y="-351.7" font-family="Arial" font-size="10.00">(king)</text>
<text xml:space="preserve" text-anchor="middle" x="4207.48" y="-327.7" font-family="Arial" font-size="10.00">975 &#45; 1038</text>
</g>
<!-- m_FAM_PIA003&#45;&gt;PIA004 -->
<g id="edge3" class="edge">
<title>m_FAM_PIA003&#45;&gt;PIA004</title>
<path fill="none" stroke="#666666" d="M1198.48,-207.76C1198.48,-207.76 1198.48,-145.01 1198.48,-145.01"/>
<polygon fill="#666666" stroke="#666666" points="1200.93,-145.01 1198.48,-138.01 1196.03,-145.01 1200.93,-145.01"/>
</g>
</g>
</svg>
