<?xml version="1.0" encoding="UTF-8" standalone="no"?>
<!DOCTYPE svg PUBLIC "-//W3C//DTD SVG 1.1//EN"
 "http://www.w3.org/Graphics/SVG/1.1/DTD/svg11.dtd">
<!-- Generated by graphviz version 14.0.1 (20251006.0113)
 -->
<!-- Title: Bodzia_&#45;_Ottonian_Dynasty Pages: 1 -->
<svg width="413pt" height="103pt"
 viewBox="0.00 0.00 413.00 103.00" xmlns="http://www.w3.org/2000/svg" xmlns:xlink="http://www.w3.org/1999/xlink">
<g id="graph0" class="graph" transform="scale(1 1) rotate(0) translate(4 98.75)">
<title>Bodzia_&#45;_Ottonian_Dynasty</title>
<polygon fill="white" stroke="none" points="-4,4 -4,-98.75 408.5,-98.75 408.5,4 -4,4"/>
<text xml:space="preserve" text-anchor="middle" x="202.25" y="-75.55" font-family="Arial Bold" font-size="16.00">Bodzia &#45; Ottonian Dynasty</text>
<!-- OTT001 -->
<g id="node1" class="node">
<title>OTT001</title>
<path fill="#a8d8ea" stroke="black" d="M98.5,-68C98.5,-68 12,-68 12,-68 6,-68 0,-62 0,-56 0,-56 0,-12 0,-12 0,-6 6,0 12,0 12,0 98.5,0 98.5,0 104.5,0 110.5,-6 110.5,-12 110.5,-12 110.5,-56 110.5,-56 110.5,-62 104.5,-68 98.5,-68"/>
<text xml:space="preserve" text-anchor="middle" x="55.25" y="-54.5" font-family="Arial" font-size="10.00">Otto I</text>
<text xml:space="preserve" text-anchor="middle" x="55.25" y="-42.5" font-family="Arial" font-size="10.00">Holy Roman Emperor</text>
<text xml:space="preserve" text-anchor="middle" x="55.25" y="-30.5" font-family="Arial" font-size="10.00">(emperor)</text>
<text xml:space="preserve" text-anchor="middle" x="55.25" y="-6.5" font-family="Arial" font-size="10.00">912 &#45; 973</text>
</g>
<!-- OTT002 -->
<g id="node2" class="node">
<title>OTT002</title>
<path fill="#a8d8ea" stroke="black" d="M245.5,-68C245.5,-68 159,-68 159,-68 153,-68 147,-62 147,-56 147,-56 147,-12 147,-12 147,-6 153,0 159,0 159,0 245.5,0 245.5,0 251.5,0 257.5,-6 257.5,-12 257.5,-12 257.5,-56 257.5,-56 257.5,-62 251.5,-68 245.5,-68"/>
<text xml:space="preserve" text-anchor="middle" x="202.25" y="-54.5" font-family="Arial" font-size="10.00">Otto II</text>
<text xml:space="preserve" text-anchor="middle" x="202.25" y="-42.5" font-family="Arial" font-size="10.00">Holy Roman Emperor</text>
<text xml:space="preserve" text-anchor="middle" x="202.25" y="-30.5" font-family="Arial" font-size="10.00">(emperor)</text>
<text xml:space="preserve" text-anchor="middle" x="202.25" y="-6.5" font-family="Arial" font-size="10.00">955 &#45; 983</text>
</g>
<!-- OTT003 -->
<g id="node3" class="node">
<title>OTT003</title>
<path fill="#a8d8ea" stroke="black" d="M392.5,-68C392.5,-68 306,-68 306,-68 300,-68 294,-62 294,-56 294,-56 294,-12 294,-12 294,-6 300,0 306,0 306,0 392.5,0 392.5,0 398.5,0 404.5,-6 404.5,-12 404.5,-12 404.5,-56 404.5,-56 404.5,-62 398.5,-68 392.5,-68"/>
<text xml:space="preserve" text-anchor="middle" x="349.25" y="-54.5" font-family="Arial" font-size="10.00">Otto III</text>
<text xml:space="preserve" text-anchor="middle" x="349.25" y="-42.5" font-family="Arial" font-size="10.00">Holy Roman Emperor</text>
<text xml:space="preserve" text-anchor="middle" x="349.25" y="-30.5" font-family="Arial" font-size="10.00">(emperor)</text>
<text xml:space="preserve" text-anchor="middle" x="349.25" y="-6.5" font-family="Arial" font-size="10.00">980 &#45; 1002</text>
</g>
</g>
</svg>
