<?xml version="1.0" encoding="UTF-8" standalone="no"?>
<!DOCTYPE svg PUBLIC "-//W3C//DTD SVG 1.1//EN"
 "http://www.w3.org/Graphics/SVG/1.1/DTD/svg11.dtd">
<!-- Generated by graphviz version 14.0.1 (20251006.0113)
 -->
<!-- Title: Bodzia_&#45;_Arpad_Dynasty Pages: 1 -->
<svg width="378pt" height="171pt"
 viewBox="0.00 0.00 378.00 171.00" xmlns="http://www.w3.org/2000/svg" xmlns:xlink="http://www.w3.org/1999/xlink">
<g id="graph0" class="graph" transform="scale(1 1) rotate(0) translate(4 166.75)">
<title>Bodzia_&#45;_Arpad_Dynasty</title>
<polygon fill="white" stroke="none" points="-4,4 -4,-166.75 374.25,-166.75 374.25,4 -4,4"/>
<text xml:space="preserve" text-anchor="middle" x="185.12" y="-143.55" font-family="Arial Bold" font-size="16.00">Bodzia &#45; Arpad Dynasty</text>
<!-- ARP001 -->
<g id="node1" class="node">
<title>ARP001</title>
<path fill="#ffd93d" stroke="black" d="M113.48,-130.23C113.48,-130.23 10.52,-73.77 10.52,-73.77 5.26,-70.88 5.26,-65.12 10.52,-62.23 10.52,-62.23 113.48,-5.77 113.48,-5.77 118.74,-2.88 129.26,-2.88 134.52,-5.77 134.52,-5.77 237.48,-62.23 237.48,-62.23 242.74,-65.12 242.74,-70.88 237.48,-73.77 237.48,-73.77 134.52,-130.23 134.52,-130.23 129.26,-133.12 118.74,-133.12 113.48,-130.23"/>
<text xml:space="preserve" text-anchor="middle" x="124" y="-88.5" font-family="Arial" font-size="10.00">Arpad</text>
<text xml:space="preserve" text-anchor="middle" x="124" y="-76.5" font-family="Arial" font-size="10.00">Grand Prince of Hungary</text>
<text xml:space="preserve" text-anchor="middle" x="124" y="-64.5" font-family="Arial" font-size="10.00">(duke)</text>
<text xml:space="preserve" text-anchor="middle" x="124" y="-40.5" font-family="Arial" font-size="10.00">845 &#45; 907</text>
</g>
<!-- ARP002 -->
<g id="node2" class="node">
<title>ARP002</title>
<path fill="#ffd93d" stroke="black" d="M358.25,-102C358.25,-102 295.75,-102 295.75,-102 289.75,-102 283.75,-96 283.75,-90 283.75,-90 283.75,-46 283.75,-46 283.75,-40 289.75,-34 295.75,-34 295.75,-34 358.25,-34 358.25,-34 364.25,-34 370.25,-40 370.25,-46 370.25,-46 370.25,-90 370.25,-90 370.25,-96 364.25,-102 358.25,-102"/>
<text xml:space="preserve" text-anchor="middle" x="327" y="-88.5" font-family="Arial" font-size="10.00">Stephen I</text>
<text xml:space="preserve" text-anchor="middle" x="327" y="-76.5" font-family="Arial" font-size="10.00">King of Hungary</text>
<text xml:space="preserve" text-anchor="middle" x="327" y="-64.5" font-family="Arial" font-size="10.00">(king)</text>
<text xml:space="preserve" text-anchor="middle" x="327" y="-40.5" font-family="Arial" font-size="10.00">975 &#45; 1038</text>
</g>
</g>
</svg>
