<?xml version="1.0" encoding="UTF-8" standalone="no"?>
<!DOCTYPE svg PUBLIC "-//W3C//DTD SVG 1.1//EN"
 "http://www.w3.org/Graphics/SVG/1.1/DTD/svg11.dtd">
<!-- Generated by graphviz version 14.0.1 (20251006.0113)
 -->
<!-- Title: Bodzia_&#45;_Piast_Dynasty Pages: 1 -->
<svg width="603pt" height="458pt"
 viewBox="0.00 0.00 603.00 458.00" xmlns="http://www.w3.org/2000/svg" xmlns:xlink="http://www.w3.org/1999/xlink">
<g id="graph0" class="graph" transform="scale(1 1) rotate(0) translate(4 453.95)">
<title>Bodzia_&#45;_Piast_Dynasty</title>
<polygon fill="white" stroke="none" points="-4,4 -4,-453.95 598.88,-453.95 598.88,4 -4,4"/>
<text xml:space="preserve" text-anchor="middle" x="297.44" y="-430.75" font-family="Arial Bold" font-size="16.00">Bodzia &#45; Piast Dynasty</text>
<!-- PIA001 -->
<g id="node1" class="node">
<title>PIA001</title>
<path fill="#4ecdc4" stroke="black" d="M94.75,-389.2C94.75,-389.2 12,-389.2 12,-389.2 6,-389.2 0,-383.2 0,-377.2 0,-377.2 0,-333.2 0,-333.2 0,-327.2 6,-321.2 12,-321.2 12,-321.2 94.75,-321.2 94.75,-321.2 100.75,-321.2 106.75,-327.2 106.75,-333.2 106.75,-333.2 106.75,-377.2 106.75,-377.2 106.75,-383.2 100.75,-389.2 94.75,-389.2"/>
<text xml:space="preserve" text-anchor="middle" x="53.38" y="-375.7" font-family="Arial" font-size="10.00">Boleslaw I the Brave</text>
<text xml:space="preserve" text-anchor="middle" x="53.38" y="-363.7" font-family="Arial" font-size="10.00">King of Poland</text>
<text xml:space="preserve" text-anchor="middle" x="53.38" y="-351.7" font-family="Arial" font-size="10.00">(king)</text>
<text xml:space="preserve" text-anchor="middle" x="53.38" y="-327.7" font-family="Arial" font-size="10.00">967 &#45; 1025</text>
</g>
<!-- PIA002 -->
<g id="node2" class="node">
<title>PIA002</title>
<path fill="#4ecdc4" stroke="black" d="M230.38,-389.2C230.38,-389.2 154.38,-389.2 154.38,-389.2 148.38,-389.2 142.38,-383.2 142.38,-377.2 142.38,-377.2 142.38,-333.2 142.38,-333.2 142.38,-327.2 148.38,-321.2 154.38,-321.2 154.38,-321.2 230.38,-321.2 230.38,-321.2 236.38,-321.2 242.38,-327.2 242.38,-333.2 242.38,-333.2 242.38,-377.2 242.38,-377.2 242.38,-383.2 236.38,-389.2 230.38,-389.2"/>
<text xml:space="preserve" text-anchor="middle" x="192.38" y="-375.7" font-family="Arial" font-size="10.00">Mieszko II Lambert</text>
<text xml:space="preserve" text-anchor="middle" x="192.38" y="-363.7" font-family="Arial" font-size="10.00">King of Poland</text>
<text xml:space="preserve" text-anchor="middle" x="192.38" y="-351.7" font-family="Arial" font-size="10.00">(king)</text>
<text xml:space="preserve" text-anchor="middle" x="192.38" y="-327.7" font-family="Arial" font-size="10.00">990 &#45; 1034</text>
</g>
<!-- m_FAM_PIA003 -->
<!-- PIA002&#45;&gt;m_FAM_PIA003 -->
<g id="edge1" class="edge">
<title>PIA002&#45;&gt;m_FAM_PIA003</title>
<path fill="none" stroke="#666666" d="M242.73,-344C253.74,-344 262.18,-344 262.18,-344 262.18,-344 262.18,-223.93 262.18,-223.93"/>
<polygon fill="#666666" stroke="#666666" points="264.63,-223.93 262.18,-216.93 259.73,-223.93 264.63,-223.93"/>
</g>
<!-- PIA003 -->
<g id="node3" class="node">
<title>PIA003</title>
<path fill="#4ecdc4" stroke="black" d="M380.12,-389.2C380.12,-389.2 290.62,-389.2 290.62,-389.2 284.62,-389.2 278.62,-383.2 278.62,-377.2 278.62,-377.2 278.62,-333.2 278.62,-333.2 278.62,-327.2 284.62,-321.2 290.62,-321.2 290.62,-321.2 380.12,-321.2 380.12,-321.2 386.12,-321.2 392.12,-327.2 392.12,-333.2 392.12,-333.2 392.12,-377.2 392.12,-377.2 392.12,-383.2 386.12,-389.2 380.12,-389.2"/>
<text xml:space="preserve" text-anchor="middle" x="335.38" y="-375.7" font-family="Arial" font-size="10.00">Richeza of Lotharingia</text>
<text xml:space="preserve" text-anchor="middle" x="335.38" y="-363.7" font-family="Arial" font-size="10.00">Queen of Poland</text>
<text xml:space="preserve" text-anchor="middle" x="335.38" y="-351.7" font-family="Arial" font-size="10.00">(queen)</text>
<text xml:space="preserve" text-anchor="middle" x="335.38" y="-327.7" font-family="Arial" font-size="10.00">995 &#45; 1063</text>
</g>
<!-- PIA003&#45;&gt;m_FAM_PIA003 -->
<g id="edge2" class="edge">
<title>PIA003&#45;&gt;m_FAM_PIA003</title>
<path fill="none" stroke="#666666" d="M278.23,-367C270.18,-367 264.57,-367 264.57,-367 264.57,-367 264.57,-223.95 264.57,-223.95"/>
<polygon fill="#666666" stroke="#666666" points="267.03,-223.95 264.58,-216.95 262.13,-223.95 267.03,-223.95"/>
</g>
<!-- PIA004 -->
<g id="node4" class="node">
<title>PIA004</title>
<path fill="#4ecdc4" stroke="black" d="M253.1,-129.8C253.1,-129.8 160.9,-74.2 160.9,-74.2 155.76,-71.1 155.76,-64.9 160.9,-61.8 160.9,-61.8 253.1,-6.2 253.1,-6.2 258.24,-3.1 268.51,-3.1 273.65,-6.2 273.65,-6.2 365.85,-61.8 365.85,-61.8 370.99,-64.9 370.99,-71.1 365.85,-74.2 365.85,-74.2 273.65,-129.8 273.65,-129.8 268.51,-132.9 258.24,-132.9 253.1,-129.8"/>
<text xml:space="preserve" text-anchor="middle" x="263.38" y="-88.5" font-family="Arial" font-size="10.00">Casimir I the Restorer</text>
<text xml:space="preserve" text-anchor="middle" x="263.38" y="-76.5" font-family="Arial" font-size="10.00">Duke of Poland</text>
<text xml:space="preserve" text-anchor="middle" x="263.38" y="-64.5" font-family="Arial" font-size="10.00">(duke)</text>
<text xml:space="preserve" text-anchor="middle" x="263.38" y="-40.5" font-family="Arial" font-size="10.00">1016 &#45; 1058</text>
</g>
<!-- PIA005 -->
<g id="node5" class="node">
<title>PIA005</title>
<path fill="#4ecdc4" stroke="black" d="M502.07,-415.62C502.07,-415.62 437.18,-362.78 437.18,-362.78 432.53,-358.99 432.53,-351.41 437.18,-347.62 437.18,-347.62 502.07,-294.78 502.07,-294.78 506.72,-290.99 516.03,-290.99 520.68,-294.78 520.68,-294.78 585.57,-347.62 585.57,-347.62 590.22,-351.41 590.22,-358.99 585.57,-362.78 585.57,-362.78 520.68,-415.62 520.68,-415.62 516.03,-419.41 506.72,-419.41 502.07,-415.62"/>
<text xml:space="preserve" text-anchor="middle" x="511.38" y="-375.7" font-family="Arial" font-size="10.00">Mieszko I</text>
<text xml:space="preserve" text-anchor="middle" x="511.38" y="-363.7" font-family="Arial" font-size="10.00">Duke of Poland</text>
<text xml:space="preserve" text-anchor="middle" x="511.38" y="-351.7" font-family="Arial" font-size="10.00">(duke)</text>
<text xml:space="preserve" text-anchor="middle" x="511.38" y="-327.7" font-family="Arial" font-size="10.00">930 &#45; 992</text>
</g>
<!-- m_FAM_PIA003&#45;&gt;PIA004 -->
<g id="edge3" class="edge">
<title>m_FAM_PIA003&#45;&gt;PIA004</title>
<path fill="none" stroke="#666666" d="M263.38,-207.76C263.38,-207.76 263.38,-145.01 263.38,-145.01"/>
<polygon fill="#666666" stroke="#666666" points="265.83,-145.01 263.38,-138.01 260.93,-145.01 265.83,-145.01"/>
</g>
</g>
</svg>
