<?xml version="1.0" encoding="UTF-8" standalone="no"?>
<!DOCTYPE svg PUBLIC "-//W3C//DTD SVG 1.1//EN"
 "http://www.w3.org/Graphics/SVG/1.1/DTD/svg11.dtd">
<!-- Generated by graphviz version 14.0.1 (20251006.0113)
 -->
<!-- Title: Bodzia_&#45;_Gorm_Dynasty Pages: 1 -->
<svg width="352pt" height="103pt"
 viewBox="0.00 0.00 352.00 103.00" xmlns="http://www.w3.org/2000/svg" xmlns:xlink="http://www.w3.org/1999/xlink">
<g id="graph0" class="graph" transform="scale(1 1) rotate(0) translate(4 98.75)">
<title>Bodzia_&#45;_Gorm_Dynasty</title>
<polygon fill="white" stroke="none" points="-4,4 -4,-98.75 348,-98.75 348,4 -4,4"/>
<text xml:space="preserve" text-anchor="middle" x="172" y="-75.55" font-family="Arial Bold" font-size="16.00">Bodzia &#45; Gorm Dynasty</text>
<!-- GOR001 -->
<g id="node1" class="node">
<title>GOR001</title>
<path fill="#f38181" stroke="black" d="M77.5,-68C77.5,-68 12,-68 12,-68 6,-68 0,-62 0,-56 0,-56 0,-12 0,-12 0,-6 6,0 12,0 12,0 77.5,0 77.5,0 83.5,0 89.5,-6 89.5,-12 89.5,-12 89.5,-56 89.5,-56 89.5,-62 83.5,-68 77.5,-68"/>
<text xml:space="preserve" text-anchor="middle" x="44.75" y="-54.5" font-family="Arial" font-size="10.00">Gorm the Old</text>
<text xml:space="preserve" text-anchor="middle" x="44.75" y="-42.5" font-family="Arial" font-size="10.00">King of Denmark</text>
<text xml:space="preserve" text-anchor="middle" x="44.75" y="-30.5" font-family="Arial" font-size="10.00">(king)</text>
<text xml:space="preserve" text-anchor="middle" x="44.75" y="-6.5" font-family="Arial" font-size="10.00">900 &#45; 958</text>
</g>
<!-- GOR002 -->
<g id="node2" class="node">
<title>GOR002</title>
<path fill="#f38181" stroke="black" d="M203.5,-68C203.5,-68 138,-68 138,-68 132,-68 126,-62 126,-56 126,-56 126,-12 126,-12 126,-6 132,0 138,0 138,0 203.5,0 203.5,0 209.5,0 215.5,-6 215.5,-12 215.5,-12 215.5,-56 215.5,-56 215.5,-62 209.5,-68 203.5,-68"/>
<text xml:space="preserve" text-anchor="middle" x="170.75" y="-54.5" font-family="Arial" font-size="10.00">Harald Bluetooth</text>
<text xml:space="preserve" text-anchor="middle" x="170.75" y="-42.5" font-family="Arial" font-size="10.00">King of Denmark</text>
<text xml:space="preserve" text-anchor="middle" x="170.75" y="-30.5" font-family="Arial" font-size="10.00">(king)</text>
<text xml:space="preserve" text-anchor="middle" x="170.75" y="-6.5" font-family="Arial" font-size="10.00">910 &#45; 986</text>
</g>
<!-- GOR003 -->
<g id="node3" class="node">
<title>GOR003</title>
<path fill="#f38181" stroke="black" d="M332,-68C332,-68 263.5,-68 263.5,-68 257.5,-68 251.5,-62 251.5,-56 251.5,-56 251.5,-12 251.5,-12 251.5,-6 257.5,0 263.5,0 263.5,0 332,0 332,0 338,0 344,-6 344,-12 344,-12 344,-56 344,-56 344,-62 338,-68 332,-68"/>
<text xml:space="preserve" text-anchor="middle" x="297.75" y="-54.5" font-family="Arial" font-size="10.00">Sweyn Forkbeard</text>
<text xml:space="preserve" text-anchor="middle" x="297.75" y="-42.5" font-family="Arial" font-size="10.00">King of Denmark</text>
<text xml:space="preserve" text-anchor="middle" x="297.75" y="-30.5" font-family="Arial" font-size="10.00">(king)</text>
<text xml:space="preserve" text-anchor="middle" x="297.75" y="-6.5" font-family="Arial" font-size="10.00">960 &#45; 1014</text>
</g>
</g>
</svg>
