<?xml version="1.0" encoding="UTF-8" standalone="no"?>
<!DOCTYPE svg PUBLIC "-//W3C//DTD SVG 1.1//EN"
 "http://www.w3.org/Graphics/SVG/1.1/DTD/svg11.dtd">
<!-- Generated by graphviz version 14.0.1 (20251006.0113)
 -->
<!-- Title: Bodzia_&#45;_Premyslid_Dynasty Pages: 1 -->
<svg width="536pt" height="171pt"
 viewBox="0.00 0.00 536.00 171.00" xmlns="http://www.w3.org/2000/svg" xmlns:xlink="http://www.w3.org/1999/xlink">
<g id="graph0" class="graph" transform="scale(1 1) rotate(0) translate(4 166.75)">
<title>Bodzia_&#45;_Premyslid_Dynasty</title>
<polygon fill="white" stroke="none" points="-4,4 -4,-166.75 531.5,-166.75 531.5,4 -4,4"/>
<text xml:space="preserve" text-anchor="middle" x="263.75" y="-143.55" font-family="Arial Bold" font-size="16.00">Bodzia &#45; Premyslid Dynasty</text>
<!-- PRE001 -->
<g id="node1" class="node">
<title>PRE001</title>
<path fill="#95e1d3" stroke="black" d="M82.11,-128.85C82.11,-128.85 9.64,-75.15 9.64,-75.15 4.82,-71.57 4.82,-64.43 9.64,-60.85 9.64,-60.85 82.11,-7.15 82.11,-7.15 86.93,-3.57 96.57,-3.57 101.39,-7.15 101.39,-7.15 173.86,-60.85 173.86,-60.85 178.68,-64.43 178.68,-71.57 173.86,-75.15 173.86,-75.15 101.39,-128.85 101.39,-128.85 96.57,-132.43 86.93,-132.43 82.11,-128.85"/>
<text xml:space="preserve" text-anchor="middle" x="91.75" y="-88.5" font-family="Arial" font-size="10.00">Bretislaus I</text>
<text xml:space="preserve" text-anchor="middle" x="91.75" y="-76.5" font-family="Arial" font-size="10.00">Duke of Bohemia</text>
<text xml:space="preserve" text-anchor="middle" x="91.75" y="-64.5" font-family="Arial" font-size="10.00">(duke)</text>
<text xml:space="preserve" text-anchor="middle" x="91.75" y="-40.5" font-family="Arial" font-size="10.00">1002 &#45; 1055</text>
</g>
<!-- PRE002 -->
<g id="node2" class="node">
<title>PRE002</title>
<path fill="#95e1d3" stroke="black" d="M295.75,-102C295.75,-102 231.75,-102 231.75,-102 225.75,-102 219.75,-96 219.75,-90 219.75,-90 219.75,-46 219.75,-46 219.75,-40 225.75,-34 231.75,-34 231.75,-34 295.75,-34 295.75,-34 301.75,-34 307.75,-40 307.75,-46 307.75,-46 307.75,-90 307.75,-90 307.75,-96 301.75,-102 295.75,-102"/>
<text xml:space="preserve" text-anchor="middle" x="263.75" y="-88.5" font-family="Arial" font-size="10.00">Vratislaus II</text>
<text xml:space="preserve" text-anchor="middle" x="263.75" y="-76.5" font-family="Arial" font-size="10.00">King of Bohemia</text>
<text xml:space="preserve" text-anchor="middle" x="263.75" y="-64.5" font-family="Arial" font-size="10.00">(king)</text>
<text xml:space="preserve" text-anchor="middle" x="263.75" y="-40.5" font-family="Arial" font-size="10.00">1032 &#45; 1092</text>
</g>
<!-- PRE003 -->
<g id="node3" class="node">
<title>PRE003</title>
<path fill="#95e1d3" stroke="black" d="M426.11,-128.85C426.11,-128.85 353.64,-75.15 353.64,-75.15 348.82,-71.57 348.82,-64.43 353.64,-60.85 353.64,-60.85 426.11,-7.15 426.11,-7.15 430.93,-3.57 440.57,-3.57 445.39,-7.15 445.39,-7.15 517.86,-60.85 517.86,-60.85 522.68,-64.43 522.68,-71.57 517.86,-75.15 517.86,-75.15 445.39,-128.85 445.39,-128.85 440.57,-132.43 430.93,-132.43 426.11,-128.85"/>
<text xml:space="preserve" text-anchor="middle" x="435.75" y="-88.5" font-family="Arial" font-size="10.00">Boleslaus I</text>
<text xml:space="preserve" text-anchor="middle" x="435.75" y="-76.5" font-family="Arial" font-size="10.00">Duke of Bohemia</text>
<text xml:space="preserve" text-anchor="middle" x="435.75" y="-64.5" font-family="Arial" font-size="10.00">(duke)</text>
<text xml:space="preserve" text-anchor="middle" x="435.75" y="-40.5" font-family="Arial" font-size="10.00">915 &#45; 972</text>
</g>
</g>
</svg>
