<?xml version="1.0" encoding="UTF-8" standalone="no"?>
<!DOCTYPE svg PUBLIC "-//W3C//DTD SVG 1.1//EN"
 "http://www.w3.org/Graphics/SVG/1.1/DTD/svg11.dtd">
<!-- Generated by graphviz version 14.0.1 (20251006.0113)
 -->
<!-- Title: Dynasty_Legend Pages: 1 -->
<svg width="128pt" height="500pt"
 viewBox="0.00 0.00 128.00 500.00" xmlns="http://www.w3.org/2000/svg" xmlns:xlink="http://www.w3.org/1999/xlink">
<g id="graph0" class="graph" transform="scale(1 1) rotate(0) translate(4 495.75)">
<title>Dynasty_Legend</title>
<polygon fill="white" stroke="none" points="-4,4 -4,-495.75 124.25,-495.75 124.25,4 -4,4"/>
<text xml:space="preserve" text-anchor="middle" x="60.12" y="-474.45" font-family="Arial Bold" font-size="14.00">Dynasty Legend</text>
<!-- legend_0 -->
<g id="node1" class="node">
<title>legend_0</title>
<polygon fill="#ff6b6b" stroke="black" points="114.12,-36 6.12,-36 6.12,0 114.12,0 114.12,-36"/>
<text xml:space="preserve" text-anchor="middle" x="60.12" y="-14.5" font-family="Arial" font-size="10.00">Rurikid</text>
</g>
<!-- legend_1 -->
<g id="node2" class="node">
<title>legend_1</title>
<polygon fill="#95e1d3" stroke="black" points="114.12,-90 6.12,-90 6.12,-54 114.12,-54 114.12,-90"/>
<text xml:space="preserve" text-anchor="middle" x="60.12" y="-68.5" font-family="Arial" font-size="10.00">Premyslid</text>
</g>
<!-- legend_2 -->
<g id="node3" class="node">
<title>legend_2</title>
<polygon fill="#4ecdc4" stroke="black" points="114.12,-144 6.12,-144 6.12,-108 114.12,-108 114.12,-144"/>
<text xml:space="preserve" text-anchor="middle" x="60.12" y="-122.5" font-family="Arial" font-size="10.00">Piast</text>
</g>
<!-- legend_3 -->
<g id="node4" class="node">
<title>legend_3</title>
<polygon fill="#e8e8e8" stroke="black" points="114.12,-198 6.12,-198 6.12,-162 114.12,-162 114.12,-198"/>
<text xml:space="preserve" text-anchor="middle" x="60.12" y="-176.5" font-family="Arial" font-size="10.00">default</text>
</g>
<!-- legend_4 -->
<g id="node5" class="node">
<title>legend_4</title>
<polygon fill="#f38181" stroke="black" points="114.12,-252 6.12,-252 6.12,-216 114.12,-216 114.12,-252"/>
<text xml:space="preserve" text-anchor="middle" x="60.12" y="-230.5" font-family="Arial" font-size="10.00">Gorm</text>
</g>
<!-- legend_5 -->
<g id="node6" class="node">
<title>legend_5</title>
<polygon fill="#fcbad3" stroke="black" points="114.12,-306 6.12,-306 6.12,-270 114.12,-270 114.12,-306"/>
<text xml:space="preserve" text-anchor="middle" x="60.12" y="-284.5" font-family="Arial" font-size="10.00">Capetian</text>
</g>
<!-- legend_6 -->
<g id="node7" class="node">
<title>legend_6</title>
<polygon fill="#aa96da" stroke="black" points="114.12,-360 6.12,-360 6.12,-324 114.12,-324 114.12,-360"/>
<text xml:space="preserve" text-anchor="middle" x="60.12" y="-338.5" font-family="Arial" font-size="10.00">Normandy</text>
</g>
<!-- legend_7 -->
<g id="node8" class="node">
<title>legend_7</title>
<polygon fill="#a8d8ea" stroke="black" points="114.12,-414 6.12,-414 6.12,-378 114.12,-378 114.12,-414"/>
<text xml:space="preserve" text-anchor="middle" x="60.12" y="-392.5" font-family="Arial" font-size="10.00">Ottonian</text>
</g>
<!-- legend_8 -->
<g id="node9" class="node">
<title>legend_8</title>
<polygon fill="#ffd93d" stroke="black" points="114.12,-468 6.12,-468 6.12,-432 114.12,-432 114.12,-468"/>
<text xml:space="preserve" text-anchor="middle" x="60.12" y="-446.5" font-family="Arial" font-size="10.00">Arpad</text>
</g>
</g>
</svg>
