<?xml version="1.0" encoding="UTF-8" standalone="no"?>
<!DOCTYPE svg PUBLIC "-//W3C//DTD SVG 1.1//EN"
 "http://www.w3.org/Graphics/SVG/1.1/DTD/svg11.dtd">
<!-- Generated by graphviz version 14.0.1 (20251006.0113)
 -->
<!-- Title: Bodzia_DNA_Network Pages: 1 -->
<svg width="893pt" height="750pt"
 viewBox="0.00 0.00 893.00 750.00" xmlns="http://www.w3.org/2000/svg" xmlns:xlink="http://www.w3.org/1999/xlink">
<g id="graph0" class="graph" transform="scale(1 1) rotate(0) translate(4 745.97)">
<title>Bodzia_DNA_Network</title>
<polygon fill="white" stroke="none" points="-4,4 -4,-745.97 888.87,-745.97 888.87,4 -4,4"/>
<text xml:space="preserve" text-anchor="middle" x="442.43" y="-722.77" font-family="Arial Bold" font-size="16.00">Bodzia DNA&#45;Tested Individuals Network</text>
<!-- RUR001 -->
<g id="node1" class="node">
<title>RUR001</title>
<ellipse fill="#2e86ab" stroke="black" stroke-width="3" cx="297.88" cy="-362.3" rx="62.23" ry="31.11"/>
<text xml:space="preserve" text-anchor="middle" x="297.88" y="-370.8" font-family="Arial" font-size="10.00">Sviatopolk I</text>
<text xml:space="preserve" text-anchor="middle" x="297.88" y="-358.8" font-family="Arial" font-size="10.00">Y&#45;DNA I1&#45;S2077</text>
<text xml:space="preserve" text-anchor="middle" x="297.88" y="-346.8" font-family="Arial" font-size="10.00">(E864/I)</text>
</g>
<!-- BOD001 -->
<g id="node2" class="node">
<title>BOD001</title>
<ellipse fill="#f18f01" stroke="black" stroke-width="3" cx="739.88" cy="-352.92" rx="77.6" ry="31.11"/>
<text xml:space="preserve" text-anchor="middle" x="739.88" y="-361.42" font-family="Arial" font-size="10.00">Princess from Bodzia</text>
<text xml:space="preserve" text-anchor="middle" x="739.88" y="-349.42" font-family="Arial" font-size="10.00">mtDNA H1c</text>
<text xml:space="preserve" text-anchor="middle" x="739.88" y="-337.42" font-family="Arial" font-size="10.00">(E864/II)</text>
</g>
<!-- RUR001&#45;&gt;BOD001 -->
<g id="edge3" class="edge">
<title>RUR001&#45;&gt;BOD001</title>
<path fill="none" stroke="#666666" d="M361.45,-361.34C536.36,-358.68 591.75,-357.74 653.01,-355.87"/>
<polygon fill="#666666" stroke="#666666" points="652.87,-358.33 659.79,-355.66 652.72,-353.43 652.87,-358.33"/>
<text xml:space="preserve" text-anchor="middle" x="531.48" y="-361.51" font-family="Times,serif" font-size="14.00">spouse</text>
</g>
<!-- RUR007 -->
<g id="node5" class="node">
<title>RUR007</title>
<ellipse fill="#ff6b6b" stroke="black" cx="60.58" cy="-132.36" rx="60.58" ry="18"/>
<text xml:space="preserve" text-anchor="middle" x="60.58" y="-128.86" font-family="Arial" font-size="10.00">Vladimir I the Great</text>
</g>
<!-- RUR001&#45;&gt;RUR007 -->
<g id="edge1" class="edge">
<title>RUR001&#45;&gt;RUR007</title>
<path fill="none" stroke="#666666" d="M263.03,-335.02C133.76,-233.71 116.76,-218.12 76.56,-156.98"/>
<polygon fill="#666666" stroke="#666666" points="78.78,-155.89 72.9,-151.38 74.68,-158.58 78.78,-155.89"/>
<text xml:space="preserve" text-anchor="middle" x="119.51" y="-234.13" font-family="Times,serif" font-size="14.00">parent</text>
</g>
<!-- RUR008 -->
<g id="node6" class="node">
<title>RUR008</title>
<ellipse fill="#ff6b6b" stroke="black" cx="70.55" cy="-602.1" rx="61.04" ry="18"/>
<text xml:space="preserve" text-anchor="middle" x="70.55" y="-598.6" font-family="Arial" font-size="10.00">Yaroslav I the Wise</text>
</g>
<!-- RUR001&#45;&gt;RUR008 -->
<g id="edge2" class="edge">
<title>RUR001&#45;&gt;RUR008</title>
<path fill="none" stroke="#666666" d="M265.6,-390.01C139.79,-498.14 123.45,-514.38 85.59,-576.92"/>
<polygon fill="#666666" stroke="#666666" points="83.65,-575.39 82.14,-582.65 87.85,-577.91 83.65,-575.39"/>
<text xml:space="preserve" text-anchor="middle" x="125.74" y="-503.76" font-family="Times,serif" font-size="14.00">parent</text>
</g>
<!-- EXT001 -->
<g id="node7" class="node">
<title>EXT001</title>
<ellipse fill="#ff6b6b" stroke="black" cx="511.77" cy="-18" rx="56.07" ry="18"/>
<text xml:space="preserve" text-anchor="middle" x="511.77" y="-14.5" font-family="Arial" font-size="10.00">Son of Sviatopolk</text>
</g>
<!-- RUR001&#45;&gt;EXT001 -->
<g id="edge4" class="edge">
<title>RUR001&#45;&gt;EXT001</title>
<path fill="none" stroke="#666666" d="M309.25,-330.27C380.34,-130.45 391.07,-109.34 482.45,-39.99"/>
<polygon fill="#666666" stroke="#666666" points="483.86,-42 487.96,-35.82 480.9,-38.09 483.86,-42"/>
<text xml:space="preserve" text-anchor="middle" x="371.37" y="-139.4" font-family="Times,serif" font-size="14.00">parent</text>
</g>
<!-- EXT002 -->
<g id="node8" class="node">
<title>EXT002</title>
<ellipse fill="#ff6b6b" stroke="black" cx="526.17" cy="-697.22" rx="69.6" ry="18"/>
<text xml:space="preserve" text-anchor="middle" x="526.17" y="-693.72" font-family="Arial" font-size="10.00">Daughter of Sviatopolk</text>
</g>
<!-- RUR001&#45;&gt;EXT002 -->
<g id="edge5" class="edge">
<title>RUR001&#45;&gt;EXT002</title>
<path fill="none" stroke="#666666" d="M310.77,-394.16C389.88,-589.29 401.9,-610.9 494.27,-675.29"/>
<polygon fill="#666666" stroke="#666666" points="492.67,-677.16 499.82,-679.14 495.47,-673.13 492.67,-677.16"/>
<text xml:space="preserve" text-anchor="middle" x="380.68" y="-586.96" font-family="Times,serif" font-size="14.00">parent</text>
</g>
<!-- BOD001&#45;&gt;EXT001 -->
<g id="edge6" class="edge">
<title>BOD001&#45;&gt;EXT001</title>
<path fill="none" stroke="#666666" d="M731.91,-320.64C687.76,-142.96 677.47,-125.95 543.8,-38.78"/>
<polygon fill="#666666" stroke="#666666" points="545.4,-36.89 538.2,-35.13 542.73,-41 545.4,-36.89"/>
<text xml:space="preserve" text-anchor="middle" x="654.53" y="-148.94" font-family="Times,serif" font-size="14.00">parent</text>
</g>
<!-- BOD001&#45;&gt;EXT002 -->
<g id="edge7" class="edge">
<title>BOD001&#45;&gt;EXT002</title>
<path fill="none" stroke="#666666" d="M733.27,-385.3C696.25,-565.43 686.74,-582.84 557.22,-675.2"/>
<polygon fill="#666666" stroke="#666666" points="556.08,-673.01 551.79,-679.06 558.92,-677 556.08,-673.01"/>
<text xml:space="preserve" text-anchor="middle" x="663.04" y="-566.39" font-family="Times,serif" font-size="14.00">parent</text>
</g>
<!-- BOD002 -->
<g id="node3" class="node">
<title>BOD002</title>
<ellipse fill="#f18f01" stroke="black" stroke-width="3" cx="802.49" cy="-126.18" rx="82.38" ry="31.11"/>
<text xml:space="preserve" text-anchor="middle" x="802.49" y="-134.68" font-family="Arial" font-size="10.00">The Witch from Bodzia</text>
<text xml:space="preserve" text-anchor="middle" x="802.49" y="-122.68" font-family="Arial" font-size="10.00">mtDNA H1c</text>
<text xml:space="preserve" text-anchor="middle" x="802.49" y="-110.68" font-family="Arial" font-size="10.00">(VK155)</text>
</g>
<!-- BOD003 -->
<g id="node4" class="node">
<title>BOD003</title>
<ellipse fill="#2e86ab" stroke="black" stroke-width="3" cx="312.49" cy="-646.18" rx="72.3" ry="22.63"/>
<text xml:space="preserve" text-anchor="middle" x="312.49" y="-648.68" font-family="Arial" font-size="10.00">Bodzia Warrior</text>
<text xml:space="preserve" text-anchor="middle" x="312.49" y="-636.68" font-family="Arial" font-size="10.00">Y&#45;DNA R1a&#45;SUR51</text>
</g>
</g>
</svg>
