<?xml version="1.0" encoding="UTF-8" standalone="no"?>
<!DOCTYPE svg PUBLIC "-//W3C//DTD SVG 1.1//EN"
 "http://www.w3.org/Graphics/SVG/1.1/DTD/svg11.dtd">
<!-- Generated by graphviz version 14.0.1 (20251006.0113)
 -->
<!-- Title: Bodzia_Early_Medieval_Royal_Houses Pages: 1 -->
<svg width="1261pt" height="250pt"
 viewBox="0.00 0.00 1261.00 250.00" xmlns="http://www.w3.org/2000/svg" xmlns:xlink="http://www.w3.org/1999/xlink">
<g id="graph0" class="graph" transform="scale(1 1) rotate(0) translate(4 245.95)">
<title>Bodzia_Early_Medieval_Royal_Houses</title>
<polygon fill="white" stroke="none" points="-4,4 -4,-245.95 1256.86,-245.95 1256.86,4 -4,4"/>
<text xml:space="preserve" text-anchor="middle" x="626.43" y="-222.75" font-family="Arial Bold" font-size="16.00">Bodzia Early Medieval Royal Houses</text>
<!-- I001 -->
<g id="node1" class="node">
<title>I001</title>
<path fill="#ff6b6b" stroke="black" d="M94.75,-181.2C94.75,-181.2 12,-181.2 12,-181.2 6,-181.2 0,-175.2 0,-169.2 0,-169.2 0,-125.2 0,-125.2 0,-119.2 6,-113.2 12,-113.2 12,-113.2 94.75,-113.2 94.75,-113.2 100.75,-113.2 106.75,-119.2 106.75,-125.2 106.75,-125.2 106.75,-169.2 106.75,-169.2 106.75,-175.2 100.75,-181.2 94.75,-181.2"/>
<text xml:space="preserve" text-anchor="middle" x="53.38" y="-167.7" font-family="Arial" font-size="10.00">Svyatopolk I of Kiev</text>
<text xml:space="preserve" text-anchor="middle" x="53.38" y="-155.7" font-family="Arial" font-size="10.00">Grand Prince of Kiev</text>
<text xml:space="preserve" text-anchor="middle" x="53.38" y="-143.7" font-family="Arial" font-size="10.00">(king)</text>
<text xml:space="preserve" text-anchor="middle" x="53.38" y="-119.7" font-family="Arial" font-size="10.00">980 &#45; 1019</text>
</g>
<!-- I002 -->
<g id="node2" class="node">
<title>I002</title>
<path fill="#ff6b6b" stroke="black" d="M237.75,-181.2C237.75,-181.2 155,-181.2 155,-181.2 149,-181.2 143,-175.2 143,-169.2 143,-169.2 143,-125.2 143,-125.2 143,-119.2 149,-113.2 155,-113.2 155,-113.2 237.75,-113.2 237.75,-113.2 243.75,-113.2 249.75,-119.2 249.75,-125.2 249.75,-125.2 249.75,-169.2 249.75,-169.2 249.75,-175.2 243.75,-181.2 237.75,-181.2"/>
<text xml:space="preserve" text-anchor="middle" x="196.38" y="-167.7" font-family="Arial" font-size="10.00">Boleslaw I the Brave</text>
<text xml:space="preserve" text-anchor="middle" x="196.38" y="-155.7" font-family="Arial" font-size="10.00">King of Poland</text>
<text xml:space="preserve" text-anchor="middle" x="196.38" y="-143.7" font-family="Arial" font-size="10.00">(king)</text>
<text xml:space="preserve" text-anchor="middle" x="196.38" y="-119.7" font-family="Arial" font-size="10.00">967 &#45; 1025</text>
</g>
<!-- I003 -->
<g id="node3" class="node">
<title>I003</title>
<path fill="#4ecdc4" stroke="black" d="M373.38,-181.2C373.38,-181.2 297.38,-181.2 297.38,-181.2 291.38,-181.2 285.38,-175.2 285.38,-169.2 285.38,-169.2 285.38,-125.2 285.38,-125.2 285.38,-119.2 291.38,-113.2 297.38,-113.2 297.38,-113.2 373.38,-113.2 373.38,-113.2 379.38,-113.2 385.38,-119.2 385.38,-125.2 385.38,-125.2 385.38,-169.2 385.38,-169.2 385.38,-175.2 379.38,-181.2 373.38,-181.2"/>
<text xml:space="preserve" text-anchor="middle" x="335.38" y="-167.7" font-family="Arial" font-size="10.00">Mieszko II Lambert</text>
<text xml:space="preserve" text-anchor="middle" x="335.38" y="-155.7" font-family="Arial" font-size="10.00">King of Poland</text>
<text xml:space="preserve" text-anchor="middle" x="335.38" y="-143.7" font-family="Arial" font-size="10.00">(king)</text>
<text xml:space="preserve" text-anchor="middle" x="335.38" y="-119.7" font-family="Arial" font-size="10.00">990 &#45; 1034</text>
</g>
<!-- m_F002 -->
<!-- I003&#45;&gt;m_F002 -->
<g id="edge1" class="edge">
<title>I003&#45;&gt;m_F002</title>
<path fill="none" stroke="#666666" d="M385.73,-136C396.74,-136 405.18,-136 405.18,-136 405.18,-136 405.18,-15.93 405.18,-15.93"/>
<polygon fill="#666666" stroke="#666666" points="407.63,-15.93 405.18,-8.93 402.73,-15.93 407.63,-15.93"/>
</g>
<!-- I004 -->
<g id="node4" class="node">
<title>I004</title>
<path fill="#4ecdc4" stroke="black" d="M523.12,-181.2C523.12,-181.2 433.62,-181.2 433.62,-181.2 427.62,-181.2 421.62,-175.2 421.62,-169.2 421.62,-169.2 421.62,-125.2 421.62,-125.2 421.62,-119.2 427.62,-113.2 433.62,-113.2 433.62,-113.2 523.12,-113.2 523.12,-113.2 529.12,-113.2 535.12,-119.2 535.12,-125.2 535.12,-125.2 535.12,-169.2 535.12,-169.2 535.12,-175.2 529.12,-181.2 523.12,-181.2"/>
<text xml:space="preserve" text-anchor="middle" x="478.38" y="-167.7" font-family="Arial" font-size="10.00">Richeza of Lotharingia</text>
<text xml:space="preserve" text-anchor="middle" x="478.38" y="-155.7" font-family="Arial" font-size="10.00">Queen of Poland</text>
<text xml:space="preserve" text-anchor="middle" x="478.38" y="-143.7" font-family="Arial" font-size="10.00">(queen)</text>
<text xml:space="preserve" text-anchor="middle" x="478.38" y="-119.7" font-family="Arial" font-size="10.00">995 &#45; 1063</text>
</g>
<!-- I004&#45;&gt;m_F002 -->
<g id="edge2" class="edge">
<title>I004&#45;&gt;m_F002</title>
<path fill="none" stroke="#666666" d="M421.23,-159C413.18,-159 407.57,-159 407.57,-159 407.57,-159 407.57,-15.95 407.57,-15.95"/>
<polygon fill="#666666" stroke="#666666" points="410.03,-15.95 407.58,-8.95 405.13,-15.95 410.03,-15.95"/>
</g>
<!-- I005 -->
<g id="node5" class="node">
<title>I005</title>
<path fill="#95e1d3" stroke="black" d="M653.73,-208.05C653.73,-208.05 581.27,-154.35 581.27,-154.35 576.45,-150.77 576.45,-143.63 581.27,-140.05 581.27,-140.05 653.73,-86.35 653.73,-86.35 658.55,-82.77 668.2,-82.77 673.02,-86.35 673.02,-86.35 745.48,-140.05 745.48,-140.05 750.3,-143.63 750.3,-150.77 745.48,-154.35 745.48,-154.35 673.02,-208.05 673.02,-208.05 668.2,-211.63 658.55,-211.63 653.73,-208.05"/>
<text xml:space="preserve" text-anchor="middle" x="663.38" y="-167.7" font-family="Arial" font-size="10.00">Bretislaus I</text>
<text xml:space="preserve" text-anchor="middle" x="663.38" y="-155.7" font-family="Arial" font-size="10.00">Duke of Bohemia</text>
<text xml:space="preserve" text-anchor="middle" x="663.38" y="-143.7" font-family="Arial" font-size="10.00">(duke)</text>
<text xml:space="preserve" text-anchor="middle" x="663.38" y="-119.7" font-family="Arial" font-size="10.00">1002 &#45; 1055</text>
</g>
<!-- I006 -->
<g id="node6" class="node">
<title>I006</title>
<path fill="#95e1d3" stroke="black" d="M867.38,-181.2C867.38,-181.2 803.38,-181.2 803.38,-181.2 797.38,-181.2 791.38,-175.2 791.38,-169.2 791.38,-169.2 791.38,-125.2 791.38,-125.2 791.38,-119.2 797.38,-113.2 803.38,-113.2 803.38,-113.2 867.38,-113.2 867.38,-113.2 873.38,-113.2 879.38,-119.2 879.38,-125.2 879.38,-125.2 879.38,-169.2 879.38,-169.2 879.38,-175.2 873.38,-181.2 867.38,-181.2"/>
<text xml:space="preserve" text-anchor="middle" x="835.38" y="-167.7" font-family="Arial" font-size="10.00">Vratislaus II</text>
<text xml:space="preserve" text-anchor="middle" x="835.38" y="-155.7" font-family="Arial" font-size="10.00">King of Bohemia</text>
<text xml:space="preserve" text-anchor="middle" x="835.38" y="-143.7" font-family="Arial" font-size="10.00">(king)</text>
<text xml:space="preserve" text-anchor="middle" x="835.38" y="-119.7" font-family="Arial" font-size="10.00">1032 &#45; 1092</text>
</g>
<!-- I007 -->
<g id="node7" class="node">
<title>I007</title>
<ellipse fill="#ff6b6b" stroke="black" cx="990.38" cy="-147.2" rx="75.48" ry="48.08"/>
<text xml:space="preserve" text-anchor="middle" x="990.38" y="-167.7" font-family="Arial" font-size="10.00">Yaroslav I the Wise</text>
<text xml:space="preserve" text-anchor="middle" x="990.38" y="-155.7" font-family="Arial" font-size="10.00">Grand Prince of Kiev</text>
<text xml:space="preserve" text-anchor="middle" x="990.38" y="-143.7" font-family="Arial" font-size="10.00">(prince)</text>
<text xml:space="preserve" text-anchor="middle" x="990.38" y="-119.7" font-family="Arial" font-size="10.00">978 &#45; 1054</text>
</g>
<!-- I008 -->
<g id="node8" class="node">
<title>I008</title>
<ellipse fill="#ff6b6b" stroke="black" cx="1177.38" cy="-147.2" rx="75.48" ry="48.08"/>
<text xml:space="preserve" text-anchor="middle" x="1177.38" y="-167.7" font-family="Arial" font-size="10.00">Iziaslav I</text>
<text xml:space="preserve" text-anchor="middle" x="1177.38" y="-155.7" font-family="Arial" font-size="10.00">Grand Prince of Kiev</text>
<text xml:space="preserve" text-anchor="middle" x="1177.38" y="-143.7" font-family="Arial" font-size="10.00">(prince)</text>
<text xml:space="preserve" text-anchor="middle" x="1177.38" y="-119.7" font-family="Arial" font-size="10.00">1024 &#45; 1078</text>
</g>
</g>
</svg>
